:SAMPLES-PER-SECOND 30
:FULLY-SPECIFIED
:DEGREES
1434
root  -36.1797 36.444 6.12732 143.424 69.0284 142.778
RightUpLeg  -28.6341 -16.6889 -14.0308
RightLeg  51.6257 3.12796 3.86411
RightFoot  -22.1231 -0.201851 -0.552712
RightToes  -1.81608e-008 0 -3.6325e-017
Spine  25.2228 -2.27603 -6.16499
Spine1  -15.3335 -3.76962 5.96218
HEad  -22.1668 -4.05 -5.73521
LeftShoulder1  0.17537 2.80064 -18.294
LeftArm  -8.94187 -27.1237 -56.3141
LeftForeArm  -4.82104 -52.0111 -14.8218
LeftHand  -0.0774996 6.89266 -2.70411
RightShoulder  -0.133239 -4.06756 15.8726
RightArm  -12.6053 20.1675 29.2186
RightForeArm  3.31969 73.2574 44.0886
RightHand  -0.142157 -0.163027 -3.15738
LeftUpLeg  -12.2476 14.0017 15.6295
LeftLeg  3.81738 -1.38765 -0.751323
LeftFoot  -2.09937 1.47299 -17.9435
LeftToes  1.81866e-011 -6.13092e-011 2.52013e-011
1435
root  -35.8689 36.2961 5.99416 141.224 69.7241 141.257
RightUpLeg  -28.1326 -15.2012 -14.3043
RightLeg  52.8883 2.72872 3.48785
RightFoot  -22.7085 -0.260871 -1.07639
RightToes  -1.81608e-008 0 -3.6325e-017
Spine  24.9836 -2.22622 -5.59714
Spine1  -14.5976 -3.59225 4.90132
HEad  -22.2264 -4.26394 -5.61942
LeftShoulder1  0.18078 2.7764 -18.2164
LeftArm  -9.72819 -26.9413 -55.8845
LeftForeArm  -4.95424 -52.8213 -15.2907
LeftHand  -0.0957513 7.5509 -2.72382
RightShoulder  -0.122238 -4.03178 15.3115
RightArm  -13.3543 20.3465 29.9242
RightForeArm  6.09602 73.8477 46.1232
RightHand  -0.108317 -0.897504 -2.69362
LeftUpLeg  -13.5364 13.9377 15.2662
LeftLeg  3.92737 -1.2285 -0.883908
LeftFoot  -1.86465 1.51173 -17.9795
LeftToes  1.81866e-011 -6.13092e-011 2.52013e-011
1436
root  -35.5808 36.1421 5.79332 140.453 70.1301 141.027
RightUpLeg  -27.5797 -14.4277 -14.4876
RightLeg  53.9663 2.40316 3.15077
RightFoot  -23.4047 -0.309111 -1.42661
RightToes  -1.81608e-008 0 -3.6325e-017
Spine  25.1976 -2.42041 -4.81037
Spine1  -14.6873 -3.62451 4.29016
HEad  -22.2057 -4.20381 -5.51492
LeftShoulder1  0.107094 3.07152 -18.1384
LeftArm  -10.1335 -26.5652 -55.8645
LeftForeArm  -4.64168 -53.6098 -15.7324
LeftHand  -0.0994483 7.50998 -2.98193
RightShoulder  -0.102838 -3.9482 15.1295
RightArm  -13.8769 20.2599 29.7689
RightForeArm  9.78694 74.7198 49.7878
RightHand  -0.0800804 -1.39707 -2.14556
LeftUpLeg  -15.0867 13.8463 14.8168
LeftLeg  3.72852 -1.09672 -1.0153
LeftFoot  -1.27875 1.6022 -17.9803
LeftToes  1.81866e-011 -6.13092e-011 2.52013e-011
1437
root  -35.2995 35.976 5.60415 140.616 70.5534 141.82
RightUpLeg  -26.9381 -13.8048 -14.3746
RightLeg  55.0674 2.01137 2.68563
RightFoot  -24.1643 -0.340095 -1.57059
RightToes  -1.81608e-008 0 -3.6325e-017
Spine  26.2225 -2.42352 -4.2478
Spine1  -15.7405 -3.52736 4.31116
HEad  -21.637 -4.24513 -5.4972
LeftShoulder1  0.1268 2.98959 -17.999
LeftArm  -10.6621 -25.8826 -56.0217
LeftForeArm  -4.13272 -54.2937 -16.1123
LeftHand  -0.102412 7.19639 -3.72389
RightShoulder  -0.109239 -3.97788 15.097
RightArm  -14.3546 19.6061 29.282
RightForeArm  14.5999 75.6763 54.7486
RightHand  -0.0807134 -1.81263 -2.32591
LeftUpLeg  -16.6481 13.8016 14.6109
LeftLeg  3.56666 -0.808984 -0.991749
LeftFoot  -0.0282054 1.82097 -18.2598
LeftToes  1.81866e-011 -6.13092e-011 2.52013e-011
1438
root  -35.0195 35.7771 5.36953 140.209 70.842 141.489
RightUpLeg  -26.9936 -13.6207 -14.6337
RightLeg  56.3818 1.885 2.62428
RightFoot  -25.0172 -0.371714 -1.68556
RightToes  -1.81608e-008 0 -3.6325e-017
Spine  26.2635 -2.31493 -4.17147
Spine1  -16.1606 -3.3976 4.33535
HEad  -21.2461 -4.22017 -5.49647
LeftShoulder1  0.13417 2.96268 -18.1628
LeftArm  -10.7235 -25.6143 -55.9809
LeftForeArm  -3.98804 -54.8757 -16.4724
LeftHand  -0.0974411 7.18117 -3.43823
RightShoulder  -0.11062 -3.99062 14.788
RightArm  -14.7131 18.9131 28.9585
RightForeArm  18.5352 76.3665 59.4361
RightHand  -0.100305 -1.58395 -2.84571
LeftUpLeg  -18.4257 13.7881 14.149
LeftLeg  3.33356 -0.380027 -1.28305
LeftFoot  1.64784 2.09391 -18.3375
LeftToes  1.81866e-011 -6.13092e-011 2.52013e-011
1439
root  -34.7413 35.5652 5.11801 139.942 71.4208 141.41
RightUpLeg  -26.932 -13.3953 -14.7164
RightLeg  57.6549 1.95865 2.88488
RightFoot  -25.9057 -0.408053 -1.82002
RightToes  -1.81608e-008 0 -3.6325e-017
Spine  26.8709 -2.17836 -4.05804
Spine1  -16.8224 -3.23467 4.32693
HEad  -21.3214 -4.2514 -5.19234
LeftShoulder1  0.139138 2.93119 -17.606
LeftArm  -10.9804 -25.1652 -56.3957
LeftForeArm  -3.76613 -55.5433 -16.8933
LeftHand  -0.0817879 7.10461 -2.66913
RightShoulder  -0.132776 -4.08115 15.2583
RightArm  -15.1432 18.7761 28.1364
RightForeArm  21.5148 76.7791 62.8329
RightHand  -0.101299 -1.93389 -3.08771
LeftUpLeg  -19.7075 13.7041 14.0424
LeftLeg  3.00148 -0.468968 -1.19941
LeftFoot  2.39238 2.24998 -18.6676
LeftToes  1.81866e-011 -6.13092e-011 2.52013e-011
1440
root  -34.4477 35.3574 4.84077 138.654 72.4019 140.473
RightUpLeg  -26.7276 -12.7443 -14.8083
RightLeg  58.8463 2.09337 3.27207
RightFoot  -26.7962 -0.428143 -1.81599
RightToes  -1.81608e-008 0 -3.6325e-017
Spine  27.3032 -1.91955 -4.15399
Spine1  -16.7616 -3.0078 4.35099
HEad  -21.8502 -3.96614 -5.04503
LeftShoulder1  0.107176 3.06209 -17.6143
LeftArm  -11.3401 -25.2725 -56.1761
LeftForeArm  -3.38208 -55.9605 -17.1456
LeftHand  -0.100036 7.33124 -3.30735
RightShoulder  -0.13072 -4.07787 14.9492
RightArm  -15.2143 18.9276 28.3101
RightForeArm  22.5725 76.9092 64.0602
RightHand  -0.084678 -2.08343 -2.62115
LeftUpLeg  -20.2377 13.9195 14.31
LeftLeg  2.71059 -0.238097 -1.15939
LeftFoot  3.06479 2.1732 -17.2319
LeftToes  1.81866e-011 -6.13092e-011 2.52013e-011
1441
root  -34.1519 35.1471 4.51769 136.833 73.5108 138.79
RightUpLeg  -26.7707 -12.3383 -15.0151
RightLeg  60.0249 2.44306 4.09283
RightFoot  -27.6665 -0.449128 -1.82253
RightToes  -1.81608e-008 0 -3.6325e-017
Spine  27.7182 -1.62724 -4.4553
Spine1  -16.9263 -2.7831 4.55233
HEad  -22.3027 -3.56442 -5.08868
LeftShoulder1  0.0648741 3.23888 -17.8443
LeftArm  -11.6516 -25.2806 -55.6388
LeftForeArm  -3.38757 -56.3544 -17.422
LeftHand  -0.108187 7.45223 -3.53653
RightShoulder  -0.0824852 -3.86892 14.364
RightArm  -15.1008 19.0273 28.7496
RightForeArm  22.4452 76.8918 63.8975
RightHand  -0.0937015 -1.92334 -2.83268
LeftUpLeg  -20.5541 13.9484 14.6275
LeftLeg  2.69078 1.40595 -0.702519
LeftFoot  4.43301 2.16796 -15.7731
LeftToes  1.81866e-011 -6.13092e-011 2.52013e-011
